# xmcd
#
# Track frame offsets:
#	182
#	14615
#	29300
#	41540
#	55492
#	68885
#	84277
#	96800
#	110182
#	125597
#	142567
#	158872
#	174547
#	188322
#	201865
#
# Disc length: 2886 seconds
#
# Revision: 2
# Processed by: cddbd v1.5.2PL0 Copyright (c) Steve Scherf et al.
# Submitted via: audiograbber 1.83.01
#
DISCID=c50b440f
DTITLE=Tennessee - Aus'm Leben
DYEAR=1991
DGENRE=Country
TTITLE0=Hallo, Liebe Hörer
TTITLE1=Junge Komm Doch Wieder
TTITLE2=Ich Bin K.o.
TTITLE3=Heirats-Angebote
TTITLE4=Wir Sind Die Jungs
TTITLE5=Nur Mit Dir
TTITLE6=Halb 8
TTITLE7=Saitensprung
TTITLE8=Ich Bin Der Hausmann
TTITLE9=Traumfrau
TTITLE10=Deine Sterne Lügen Nicht
TTITLE11=Wirklich Schade
TTITLE12=Tausche Ufo Gegen 20-Tonner Diesel
TTITLE13=Express
TTITLE14=wir sind 'ne kleine countryband
EXTD=
EXTT0=
EXTT1=
EXTT2=
EXTT3=
EXTT4=
EXTT5=
EXTT6=
EXTT7=
EXTT8=
EXTT9=
EXTT10=
EXTT11=
EXTT12=
EXTT13=
EXTT14=
PLAYORDER=
